<?xml version="1.0" encoding="UTF-8"?>
<!DOCTYPE svg PUBLIC "-//W3C//DTD SVG 1.1//EN" "http://www.w3.org/Graphics/SVG/1.1/DTD/svg11.dtd">
<!-- Creator: CorelDRAW -->
<svg xmlns="http://www.w3.org/2000/svg" xml:space="preserve" width="125.755mm" height="86.7156mm" version="1.1" style="shape-rendering:geometricPrecision; text-rendering:geometricPrecision; image-rendering:optimizeQuality; fill-rule:evenodd; clip-rule:evenodd"
viewBox="0 0 12576 8672"
 xmlns:xlink="http://www.w3.org/1999/xlink">
 <defs>
  <style type="text/css">
   <![CDATA[
    .fil4 {fill:black}
    .fil0 {fill:#B2B2B2}
    .fil3 {fill:#E5E5FF}
    .fil2 {fill:#F5B070}
    .fil1 {fill:#FFE5B2}
    .fil5 {fill:#FFE6BF}
   ]]>
  </style>
 </defs>
 <g id="Layer_x0020_1">
  <metadata id="CorelCorpID_0Corel-Layer"/>
  <g id="anim0042.ai">
   <polygon class="fil0" points="5143,8440 3465,8567 2629,8517 1791,8237 1232,7828 1361,7475 1717,7269 1311,7191 752,7041 348,6761 0,6279 119,5875 450,5644 879,5441 1641,5364 8057,5215 10566,5291 12037,6332 12342,6812 11504,7371 11430,8392 10945,8593 10239,8672 9553,8593 9200,8392 9045,8158 9248,8029 9454,7879 9324,7549 8768,7396 7882,7396 6685,7526 "/>
   <polygon class="fil1" points="9695,828 8400,236 7582,46 6921,89 5827,521 4722,853 3729,1006 3025,1516 2205,2639 2029,3503 1654,3828 1504,4351 1532,4933 1908,5486 2377,5974 2583,6203 2530,7386 2167,7683 2057,7833 2123,8087 2530,8316 3584,8255 4130,8405 5016,8405 6459,8316 7198,8171 7419,7912 7099,7175 7836,6916 9207,6500 10056,6688 9936,7267 9787,8049 9936,8364 10825,8580 11687,8316 11808,7724 11864,7386 12456,7023 12128,6419 11725,5461 11712,4498 11392,3205 "/>
   <polygon class="fil2" points="9815,7866 9975,7638 10041,7366 10074,7107 10130,6937 10241,6789 10345,6746 10483,6726 10749,6767 11102,6924 11326,7071 11405,7236 11618,7399 11768,7546 11900,7772 11918,7638 11763,7424 11478,7201 11306,6995 11112,6863 10688,6645 10345,6591 10130,6609 9987,6960 9891,7275 "/>
   <polygon class="fil2" points="3114,2664 3188,2299 3335,1971 3592,1897 4161,1867 4097,2017 3612,2263 3264,2596 "/>
   <polygon class="fil2" points="4844,3190 4912,2842 5131,2697 5608,2596 5860,2718 5471,2997 5309,3236 "/>
   <polygon class="fil2" points="5016,2390 5110,2118 5255,1991 5608,1971 6327,2197 5911,2319 5367,2273 "/>
   <polygon class="fil2" points="3797,1565 4260,1438 4630,1460 4889,1633 4765,1943 4834,2118 4712,2319 4961,2489 4712,3035 4613,2697 4366,2520 4117,2342 4559,2197 4214,2141 4463,2017 4168,1971 4514,1819 4242,1737 4483,1694 4138,1659 "/>
   <polygon class="fil2" points="4592,1031 5413,1031 5832,1214 6482,1460 6886,1694 7369,2164 7671,2563 7711,2842 7082,2619 6431,2319 6109,2334 6599,2664 6828,2934 7186,2959 7460,3134 7412,3259 7010,3172 6530,3145 6015,2972 6327,3218 5911,3145 6413,3335 6861,3691 7333,4336 8085,4420 8456,3673 8407,3099 8293,2619 7965,2141 7155,1567 6563,1138 6043,894 5560,792 5110,785 "/>
   <polygon class="fil2" points="11692,7358 11788,7145 11956,7120 12121,7051 12177,6899 12106,6637 11905,6391 11928,6177 11867,5862 11580,5398 11471,5088 11643,4745 11527,4188 11280,3967 11184,4064 11168,4277 11255,4862 10701,4435 10198,3993 9715,3477 9383,2880 9286,2319 9025,1623 8578,1019 8809,1019 8636,825 8961,993 8928,759 9119,808 8849,556 8128,292 7478,175 6772,206 5898,521 5192,846 4689,1046 3891,1092 3592,1267 3350,1450 3637,1529 4105,1506 4552,1577 3746,1770 3279,1798 2868,2017 2537,2446 2342,2835 2578,2764 2342,2977 2797,2860 2050,3492 2024,3010 2217,2476 2969,1547 3233,1283 3734,975 4392,800 5001,785 5773,483 6297,246 6828,56 7394,28 8245,196 9571,660 11273,2644 11613,3795 11717,4221 11781,5187 11737,5479 11928,5900 12141,6233 12177,6449 12484,6787 12484,7003 12360,7257 11905,7478 11816,7526 "/>
   <polygon class="fil2" points="9764,8062 9832,8230 10025,8491 10216,8537 10770,8575 11280,8593 11570,8451 11859,8049 11913,7925 11938,7676 11816,7455 11887,7663 11788,7724 11620,7628 11389,7455 11046,7445 11377,7691 11471,7859 11453,7988 11326,8034 11168,7937 10945,7821 10963,8014 10904,8199 10754,8186 10612,7795 10516,7841 10579,8034 10437,7925 10287,8113 10198,8329 10122,8230 10122,7963 10130,7747 10008,7747 9936,7937 9858,8062 "/>
   <polygon class="fil2" points="7206,6990 7554,6482 7719,6398 7894,5933 8486,5875 9058,5806 8793,6053 9075,6195 8733,6398 8070,6444 7874,6599 8283,6525 8631,6467 9014,6579 7615,7066 "/>
   <polygon class="fil2" points="8705,4036 8748,3790 8948,3322 9096,3673 9378,3647 9444,3967 9682,4077 9909,4199 9723,4399 10048,4382 9909,4620 10152,4745 10056,4971 10229,5027 10137,5260 10315,5298 10173,5502 10617,5385 10584,5570 10886,5466 11209,5565 11389,5667 10782,5817 10688,5956 10701,6157 10516,6388 10577,6505 10871,6761 10490,6599 10048,6599 9649,6690 9200,6586 8837,6561 9111,6444 9401,6482 9606,6142 9200,6198 9340,5875 9037,5806 8999,5690 8854,5631 8933,5446 8837,5385 9075,5039 8816,5136 8933,4854 9014,4427 8933,4161 "/>
   <polygon class="fil2" points="2929,5662 2789,6020 2870,6515 2926,6142 3025,6002 3175,6020 3465,6241 3459,6492 3355,6701 3167,6845 2984,6833 3086,7269 3208,7546 3307,7719 3287,7889 3213,7910 3157,7866 3063,7691 2936,7620 3012,7877 2992,7945 2913,7945 2868,7742 2776,7711 2700,7699 2728,7884 2728,8026 2654,7988 2621,7849 2586,7645 2499,7800 2479,7937 2433,8042 2370,8004 2355,7866 2362,7699 2261,7666 2205,7854 2149,7917 2108,7877 2121,8062 2405,8258 3584,8131 3805,7374 3858,6124 "/>
   <polygon class="fil2" points="5309,7546 4712,7150 4651,7000 4821,6708 5143,6561 5471,6533 5926,6515 6170,6637 6276,6873 6101,7287 5959,7435 6198,7529 6088,7719 6419,7859 6327,8133 6624,8191 7005,8120 7206,7925 7226,7676 7089,7379 6205,6137 5705,5758 5743,5377 5598,5151 5761,4923 5598,4694 5372,4343 5436,4194 5629,4133 5761,4133 5898,4003 6005,4161 6439,4361 6741,4745 6810,4971 7082,5027 7051,5164 7206,5156 7216,5728 7148,6391 7148,6695 7310,6238 7465,5321 7529,6228 7155,7196 7498,7813 7302,8133 7109,8230 6132,8385 5568,8166 "/>
   <polygon class="fil3" points="6190,5227 6043,5583 6477,5799 6817,5654 6855,5370 6538,5103 "/>
   <polygon class="fil3" points="3650,5583 3876,5964 4188,5954 4448,5606 4260,5499 "/>
   <polygon class="fil2" points="4427,6561 4196,7203 3993,7488 3914,7772 3884,7983 3960,8217 4272,8354 4610,8303 4968,8141 5309,7808 5517,8042 4923,8438 4242,8407 3675,8303 3650,7859 3780,7084 "/>
   <polygon class="fil2" points="1699,5108 1626,4552 1758,4120 2012,3759 2400,3523 3086,3238 3213,3335 3571,3211 3609,3381 3993,3315 4148,3513 3655,3881 3675,4031 3856,4089 3810,4211 4044,4221 4196,3985 4221,3807 4404,3655 4354,3388 4506,3259 5065,3238 5438,3152 5949,3307 6286,3693 6335,4061 5794,3881 5438,3807 5276,3627 5131,3777 5055,3940 4923,3828 5085,4166 5027,4613 5131,5108 5065,5420 4961,5890 4534,6203 4333,6259 4333,5398 3343,5728 2824,5088 2609,5779 2609,6144 "/>
   <polygon class="fil4" points="3018,2725 2725,2847 2266,3167 2042,3355 1826,3490 1516,3851 1400,4239 1400,4615 1516,5077 1692,5441 2042,5827 2309,6071 2421,6375 2510,6121 2522,5852 2563,5291 2642,4991 2789,4511 3233,3719 3416,3452 3058,3503 3005,3345 2454,3556 2108,3772 1867,4069 1758,4323 1704,4699 1758,5088 1570,4699 1557,4348 1758,3828 2134,3452 2616,3023 "/>
   <polygon class="fil4" points="3272,3960 3929,3465 3566,3518 3391,3706 "/>
   <polygon class="fil4" points="2482,5695 2626,6078 2642,6566 2642,6967 2642,7221 2537,7435 2375,7541 2504,7244 2504,7028 2530,6629 2537,6411 2530,6157 2357,5649 "/>
   <polygon class="fil4" points="2603,4902 2764,5225 2764,5410 2738,5720 2764,6121 2870,6482 2857,6081 2974,5745 3381,6017 3670,6215 3513,6713 3284,6967 3018,6886 3162,7231 3325,7488 3553,7747 3338,7836 3447,7892 3363,7971 3233,8004 3084,7971 3058,8171 2896,8339 3195,8352 3416,8278 3754,8374 4105,8433 4397,8433 3955,8296 3767,8120 3767,7849 3876,7475 4143,7127 4463,6495 4813,6121 4379,6457 4448,6121 4676,6017 4864,5839 4961,5654 4996,5370 4785,5558 4280,5507 4247,5720 4183,5865 3993,5921 3846,5827 3754,5720 3688,5585 3459,5532 3246,5425 3084,5194 2974,4862 3246,5164 3584,4902 4196,4765 3876,4714 4021,4376 3513,4239 3650,4094 3246,4186 2776,4498 2576,4577 "/>
   <polygon class="fil4" points="3350,5545 3513,5278 3810,5131 3670,5103 4008,4971 4463,4971 4729,5077 4638,5212 4826,5235 4729,5453 4986,5398 4801,5667 4221,5598 4155,5695 4077,5745 3955,5720 3858,5611 3658,5667 "/>
   <polygon class="fil4" points="4448,4737 4826,4869 5098,5164 4961,4765 4996,4427 4976,4041 4844,3772 4930,3599 4976,3744 5151,3574 5364,3586 5552,3759 5977,3876 6248,3947 6043,3574 5669,3302 5347,3236 5009,3355 4669,3332 4475,3452 4542,3653 4300,3907 4209,4122 4397,4239 4183,4402 4638,4295 4917,4415 4493,4549 4346,4656 "/>
   <polygon class="fil4" points="6459,2431 6744,2606 7529,2860 7915,3264 8512,3640 8628,4161 8415,5116 8214,5453 7864,5839 7747,6017 7775,6312 7506,6294 7198,6980 7399,6149 7412,5331 7236,4252 6919,3691 6477,3332 6751,3211 7140,3223 7518,3973 7399,3264 7864,3424 7478,2954 7051,2794 6716,2672 6599,2581 "/>
   <polygon class="fil4" points="5697,4699 5842,4910 5761,5144 5827,5344 5781,5585 5814,5745 6083,5895 6152,5761 6236,5398 6297,5532 6431,5532 6556,5441 6634,5291 6751,5357 7155,5466 7168,5225 6952,5278 7010,5144 6810,5131 6744,4991 6576,4890 6510,4778 6297,4643 6170,4699 6060,4656 5827,4643 "/>
   <polygon class="fil4" points="6177,5532 6342,5667 6556,5641 6703,5545 6769,5225 7140,5441 7031,6071 7010,6591 7051,6980 7353,7384 7584,7638 7623,7866 7529,8070 7290,8237 6751,8326 5540,8484 6886,8237 7186,8138 7374,7917 7374,7704 7186,7435 6817,6873 6510,6457 6269,6093 5939,5773 "/>
   <polygon class="fil4" points="5977,6579 5560,6617 5240,6604 4882,6767 4745,7046 5065,7341 5347,7503 5105,7691 5347,7945 5118,8199 4669,8433 5306,8471 5939,8412 6431,8339 6152,8158 6269,7917 5949,7760 6017,7595 5735,7488 6109,7140 6177,6873 6170,6701 "/>
   <polygon class="fil4" points="5413,2690 4986,2913 4892,3155 5250,3155 5606,2769 "/>
   <polygon class="fil4" points="2220,7658 2248,7813 2205,7925 2134,7950 2103,7854 2088,7988 2136,8141 2334,8341 2616,8387 2901,8385 3091,8288 3226,8026 3114,7925 3058,7742 2954,7699 3020,7813 3033,7963 2926,8054 2868,7963 2842,7871 2868,7750 2812,7788 2703,7699 2771,7841 2789,7953 2758,8133 2629,8026 2598,7892 2591,7724 2537,7841 2543,7983 2466,8047 2426,8166 2324,8062 2324,7859 2304,7719 "/>
   <polygon class="fil4" points="5898,4044 5773,4166 5464,4206 5405,4338 5578,4262 5852,4277 5794,4402 6144,4382 6360,4422 5959,4178 "/>
   <polygon class="fil4" points="3183,2611 3513,2263 4084,1956 3650,2017 3401,1991 3246,2334 "/>
   <polygon class="fil4" points="2070,3127 2172,2827 2459,2327 3084,1460 3774,1001 4592,838 5001,818 5372,704 6248,284 7031,79 7574,102 8387,305 9020,384 8283,155 7595,20 6993,0 6360,163 5608,500 4950,747 4427,777 3774,909 3203,1247 2713,1806 2179,2494 1974,2842 1920,3503 2083,3355 "/>
   <polygon class="fil4" points="4117,1041 4351,1052 4768,897 5177,828 5641,869 6101,998 6716,1328 7389,1811 7978,2286 8349,3056 8349,3693 8237,3030 7978,2553 7747,2245 7018,1651 6360,1247 5794,1011 5337,945 4961,963 4651,1092 4384,1135 3973,1072 "/>
   <polygon class="fil4" points="2855,1875 3203,1537 3505,1613 4008,1565 4404,1516 4785,1613 4651,1913 4768,2085 4689,2261 4851,2507 4801,2855 4768,2527 4338,2372 4638,2177 4643,2027 4559,1867 4643,1643 4338,1623 3980,1684 3632,1717 3305,1722 3114,1781 "/>
   <polygon class="fil4" points="5055,2377 5171,2078 5438,2042 5814,2126 6210,2192 5773,2222 5436,2172 5248,2202 "/>
   <polygon class="fil4" points="8875,1062 9182,1534 9365,2029 9454,2459 9482,2743 9581,2990 9820,3297 10269,3960 10853,4432 11280,4895 11026,4402 11074,3932 10909,4249 10833,4028 10881,3840 10983,3030 11059,3340 11250,3376 11412,3586 11453,3711 11212,3691 11514,3937 11666,4105 11687,4503 11750,5006 11659,5309 11791,5611 11834,5281 11811,4867 11750,4298 11722,3607 11496,2870 11250,2080 10853,1410 10483,980 9962,584 9461,376 9032,325 8283,241 9032,584 9461,1062 9086,881 9103,1105 "/>
   <polygon class="fil4" points="8748,3960 8941,3439 9053,3746 9350,3757 9360,4127 9708,4148 9637,4369 9329,4811 8961,4991 9174,4564 9228,3820 9002,4084 8920,3932 "/>
   <polygon class="fil4" points="9667,4557 9512,4689 8979,5309 9319,5245 9053,5583 9413,5489 9174,5715 9434,5715 9329,6081 9677,5982 9982,5654 10198,5408 9870,5448 10066,5151 9827,5108 9911,4874 9708,4874 9863,4412 "/>
   <polygon class="fil4" points="9751,6165 10025,5779 10577,5428 10434,5674 10871,5591 11333,5654 10904,5674 10462,5870 10597,6053 10320,6350 10330,6525 10688,6609 10963,6800 10554,6645 10287,6637 10013,6800 9840,6789 9533,6728 9268,6586 9566,6624 9594,6431 "/>
   <polygon class="fil4" points="11841,5735 12126,6091 12159,6350 12509,6769 12576,6975 12405,7242 12189,7374 11872,7526 11841,7483 12045,7269 12291,7188 12446,6962 12413,6749 12128,6462 12024,6104 "/>
   <polygon class="fil4" points="9124,6553 8674,6513 8357,6553 7998,6695 7602,6800 7757,6441 7447,6688 7323,6904 7099,7188 7224,7269 7529,7188 8077,7127 8318,7054 8466,6955 8611,6800 8793,6695 "/>
   <polygon class="fil4" points="7816,6299 7998,6093 8377,6060 8717,6002 8532,6195 8941,6215 8611,6320 8125,6327 7714,6482 "/>
   <polygon class="fil4" points="9995,6820 9967,6937 9891,7175 9878,7391 9850,7643 9807,7910 9911,7676 9975,7353 10013,7051 10229,6604 10091,6657 "/>
   <polygon class="fil4" points="11333,7015 11453,7257 11763,7435 11925,7678 11933,7841 11821,7803 11892,7904 11864,8014 11763,7965 11618,7821 11722,7742 11476,7615 11328,7554 11074,7465 11189,7579 11384,7678 11567,7866 11631,8042 11504,8141 11300,8133 11026,7945 11059,8087 10996,8199 10904,8329 11067,8296 11199,8471 11412,8532 11651,8491 11801,8179 11913,8070 12004,7854 11976,7638 11874,7455 11547,7229 "/>
   <polygon class="fil4" points="10665,7750 10770,7866 10963,7897 10820,7965 10780,8237 10904,8352 11046,8491 11219,8575 10841,8595 10462,8654 10145,8532 10145,8329 10320,8491 10330,8225 10447,7976 10554,8151 10658,8225 10688,8016 10597,7854 "/>
   <polygon class="fil4" points="10104,7841 10208,8070 10137,8225 10036,8151 9876,8308 9799,8179 9995,8016 10013,7821 "/>
   <polygon class="fil4" points="9936,8329 10020,8428 10295,8575 10048,8542 9832,8255 "/>
   <polygon class="fil4" points="5118,6454 5405,6363 5926,6363 5695,6223 5372,6259 "/>
   <polygon class="fil5" points="5911,701 6403,470 6894,353 7640,371 8273,566 8664,889 8387,925 8890,1590 9103,2126 9157,2817 9469,3228 9690,3719 10378,4310 9594,3952 9416,3538 9174,3586 8961,3172 8656,3556 8443,2583 8098,2065 7529,1598 6845,1229 6627,1006 6256,838 "/>
   <polygon class="fil5" points="3551,1438 3655,1308 3929,1176 4176,1151 4351,1191 4585,1176 4872,1079 5268,1143 5801,1351 6314,1463 6655,1598 6944,1831 7127,2078 7353,2281 7516,2476 7556,2685 7023,2459 6594,2263 6170,2060 5715,1854 5347,1854 5189,1984 5039,2141 4902,2009 4882,1811 4961,1605 4722,1397 4450,1359 4107,1392 3884,1463 3663,1463 "/>
   <polygon class="fil5" points="2217,3503 2510,3185 2870,2913 3155,2756 3409,2667 3541,2423 3655,2355 3899,2299 4221,2502 4475,2713 4559,2865 4595,3068 4450,3203 4265,3365 4318,3653 4130,3800 4097,4023 4000,4161 3884,4049 3813,3957 3876,3815 4084,3711 4196,3503 4044,3297 3846,3259 3663,3259 3637,3076 3279,3160 3254,3076 2830,3228 "/>
   <polygon class="fil5" points="3188,1943 2855,2184 2598,2476 2482,2705 2809,2553 2634,2774 3025,2601 3117,2192 "/>
   <polygon class="fil5" points="5067,2593 5202,2398 5392,2329 5812,2347 6101,2438 6386,2637 6563,2840 6723,2982 6993,3043 6655,3119 6327,3002 5842,2891 6121,3119 5735,3111 5573,3051 5898,2725 5763,2568 5517,2510 "/>
   <polygon class="fil5" points="6017,3289 6353,3642 6447,3848 6472,4120 6177,4120 6624,4392 6810,4661 6965,4910 7206,5065 7348,5316 7206,4620 7148,4303 6939,3899 6769,3693 6497,3472 "/>
   <polygon class="fil5" points="5159,4290 5159,4669 5204,5182 5009,5961 4648,6391 5050,6307 4889,6535 5301,6241 5568,6175 5926,6281 6017,6144 5751,5883 5552,5700 5634,5403 5530,5156 5588,4948 5530,4745 5309,4382 5367,4178 5494,4094 5697,4049 5618,3889 5364,3856 5255,3734 5113,3973 "/>
   <polygon class="fil5" points="6294,6444 6782,7112 7038,7457 7079,7656 7038,7833 6906,7950 6716,8062 6447,8075 6518,7775 6238,7711 6393,7478 6180,7417 6294,7145 6353,6899 6294,6670 "/>
   <polygon class="fil5" points="4463,6899 4559,7170 4834,7391 5113,7562 4910,7704 5027,7841 4851,8075 4592,8179 4305,8230 4176,8166 4016,8004 4051,7729 4188,7478 4321,7231 "/>
   <polygon class="fil5" points="3000,6104 2949,6281 2934,6487 2992,6645 3137,6734 3287,6670 3355,6487 3312,6266 3203,6124 3071,6078 "/>
   <polygon class="fil5" points="2720,6358 2728,7021 2695,7300 2499,7562 2609,7612 2797,7562 2908,7663 2926,7546 3147,7678 3117,7442 2974,7211 2926,6749 "/>
   <polygon class="fil5" points="8677,4237 8473,5141 8225,5570 7932,5857 8849,5733 8727,5616 8809,5438 8677,5385 8809,5204 8636,5204 8832,4846 8875,4557 8832,4323 "/>
   <polygon class="fil5" points="10325,4531 10597,4549 10858,4702 11196,4948 11400,5298 11488,5519 11039,5370 10676,5479 10742,5298 10366,5324 10495,5164 10300,5141 10434,4983 10259,4917 10343,4778 "/>
   <polygon class="fil5" points="10775,6251 10818,6020 10945,5913 11128,5890 11359,5944 11514,5824 11631,5857 11717,5969 11735,6149 11735,6332 11900,6487 11963,6716 11946,6899 11791,7010 11654,7054 11654,7170 11433,7010 11250,6858 11072,6741 10841,6612 10688,6454 10663,6358 "/>
   <polygon class="fil5" points="10096,7602 10137,7318 10185,7071 10290,6911 10475,6800 10704,6800 10881,6906 11062,7028 11359,7300 10996,7409 11062,7602 11285,7808 11242,7899 10866,7750 10638,7572 10483,7729 10366,7877 10185,7841 10229,7587 "/>
  </g>
 </g>
</svg>
